<svg xmlns="http://www.w3.org/2000/svg" viewBox="0 0 64 64" role="img" aria-label="Wukong Devour Quest icon">
  <rect width="64" height="64" rx="14" fill="#f6c453"/>
  <circle cx="32" cy="33" r="21" fill="#fff1c7"/>
  <path d="M15 26c5-14 29-20 39-6-9-3-17 0-23 6-5-3-10-4-16 0z" fill="#d24b35"/>
  <path d="M20 25c5-7 17-10 26-5-7 0-15 3-21 9z" fill="#ff7a45"/>
  <circle cx="24" cy="35" r="4" fill="#263238"/>
  <circle cx="40" cy="35" r="4" fill="#263238"/>
  <path d="M25 45c5 4 10 4 15 0" fill="none" stroke="#263238" stroke-width="4" stroke-linecap="round"/>
  <path d="M11 15 53 49" stroke="#7f4a12" stroke-width="5" stroke-linecap="round"/>
  <path d="M9 13 15 19M49 45l6 6" stroke="#ffe08a" stroke-width="3" stroke-linecap="round"/>
</svg>
